<svg xmlns="http://www.w3.org/2000/svg" xmlns:xlink="http://www.w3.org/1999/xlink" width="180" height="120" xmlns:v="https://vecta.io/nano"><style><![CDATA[.C{opacity:.5}.D{fill:#fff}.E{fill-rule:evenodd}]]></style><g opacity=".03" class="D"><path d="M66 110c-1.6 0-3.1-.6-4.2-1.8-1.2-1.1-1.8-2.6-1.8-4.2s.6-3.1 1.8-4.2c1.1-1.2 2.6-1.8 4.2-1.8s3.1.6 4.2 1.8c1.2 1.1 1.8 2.6 1.8 4.2s-.6 3.1-1.8 4.2c-1.1 1.2-2.6 1.8-4.2 1.8zm0-2c1.1 0 2.1-.4 2.8-1.2.8-.7 1.2-1.7 1.2-2.8s-.4-2.1-1.2-2.8c-.7-.8-1.7-1.2-2.8-1.2s-2.1.4-2.8 1.2c-.8.7-1.2 1.7-1.2 2.8s.4 2.1 1.2 2.8c.7.8 1.7 1.2 2.8 1.2zM6 64c-1.1 0-2.1-.4-2.8-1.2C2.4 62.1 2 61.1 2 60s.4-2.1 1.2-2.8C3.9 56.4 4.9 56 6 56s2.1.4 2.8 1.2c.8.7 1.2 1.7 1.2 2.8s-.4 2.1-1.2 2.8C8.1 63.6 7.1 64 6 64zm0-2c.5 0 1-.2 1.4-.6s.6-.9.6-1.4-.2-1-.6-1.4S6.5 58 6 58s-1 .2-1.4.6-.6.9-.6 1.4.2 1 .6 1.4.9.6 1.4.6zm90 32c-1.1 0-2.1-.4-2.8-1.2-.8-.7-1.2-1.7-1.2-2.8s.4-2.1 1.2-2.8c.7-.8 1.7-1.2 2.8-1.2s2.1.4 2.8 1.2c.8.7 1.2 1.7 1.2 2.8s-.4 2.1-1.2 2.8c-.7.8-1.7 1.2-2.8 1.2zm0-2c.5 0 1-.2 1.4-.6s.6-.9.6-1.4-.2-1-.6-1.4-.9-.6-1.4-.6-1 .2-1.4.6-.6.9-.6 1.4.2 1 .6 1.4.9.6 1.4.6zm30-52c-1.1 0-2.1-.4-2.8-1.2-.8-.7-1.2-1.7-1.2-2.8s.4-2.1 1.2-2.8c.7-.8 1.7-1.2 2.8-1.2s2.1.4 2.8 1.2c.8.7 1.2 1.7 1.2 2.8s-.4 2.1-1.2 2.8c-.7.8-1.7 1.2-2.8 1.2zm0-2c.5 0 1-.2 1.4-.6s.6-.9.6-1.4-.2-1-.6-1.4-.9-.6-1.4-.6-1 .2-1.4.6-.6.9-.6 1.4.2 1 .6 1.4.9.6 1.4.6z" class="C E"/><g class="C"><use xlink:href="#B"/><use xlink:href="#C"/></g><g class="C"><use xlink:href="#B" x="30" y="96"/><use xlink:href="#C" x="30" y="96"/></g><g class="C"><use xlink:href="#B" x="90" y="60"/><use xlink:href="#C" x="90" y="60"/></g><g class="C"><path d="M155 39a.94.94 0 1 1 2 0v10a.94.94 0 1 1-2 0z"/><use xlink:href="#C" x="150" y="44"/></g><g class="C"><path d="M157.4 11.2c.4-.4 1-.4 1.4 0s.4 1 0 1.4l-4.2 4.2c-.4.4-1 .4-1.4 0s-.4-1 0-1.4z"/><path d="M158.8 15.4c.4.4.4 1 0 1.4s-1 .4-1.4 0l-4.2-4.2c-.4-.4-.4-1 0-1.4s1-.4 1.4 0z"/></g><g class="C"><path d="M37.4 33.2c.4-.4 1-.4 1.4 0s.4 1 0 1.4l-4.2 4.2c-.4.4-1 .4-1.4 0s-.4-1 0-1.4z"/><path d="M38.8 37.4c.4.4.4 1 0 1.4s-1 .4-1.4 0l-4.2-4.2c-.4-.4-.4-1 0-1.4s1-.4 1.4 0z"/></g><g class="C E"><path d="M12 85v4q0 .4-.3.7-.3.3-.7.3-.4 0-.7-.3-.3-.3-.3-.7v-3H7q-.4 0-.7-.3-.3-.3-.3-.7 0-.4.3-.7.3-.3.7-.3h4q.2 0 .4.1.2.1.3.2.1.1.2.3.1.2.1.4zm-3 3v4q0 .4-.3.7-.3.3-.7.3-.4 0-.7-.3-.3-.3-.3-.7v-3H4q-.4 0-.7-.3-.3-.3-.3-.7 0-.4.3-.7.3-.3.7-.3h4q.2 0 .4.1.2.1.3.2.1.1.2.3.1.2.1.4zm-3 3v4q0 .4-.3.7-.3.3-.7.3-.4 0-.7-.3-.3-.3-.3-.7v-3H1q-.4 0-.7-.3-.3-.3-.3-.7 0-.4.3-.7.3-.3.7-.3h4q.2 0 .4.1.2.1.3.2.1.1.2.3.1.2.1.4z"/></g><g class="C E"><use xlink:href="#D"/><use xlink:href="#D" x="3" y="3"/><use xlink:href="#D" x="6" y="6"/></g><g class="C E"><use xlink:href="#E"/><use xlink:href="#E" x="-3" y="-3"/></g><g class="C E"><path d="M101 6h-4q-.4 0-.7-.3-.3-.3-.3-.7 0-.4.3-.7.3-.3.7-.3h3V1q0-.4.3-.7.3-.3.7-.3.4 0 .7.3.3.3.3.7v4q0 .2-.1.4-.1.2-.2.3-.1.1-.3.2-.2.1-.4.1z"/><use xlink:href="#E" y="-120"/></g><g class="C"><use xlink:href="#F"/><use xlink:href="#F" x="1" y="3"/><use xlink:href="#F" y="6"/></g><g class="C"><use xlink:href="#F" x="30" y="-14"/><use xlink:href="#F" x="31" y="-11"/><use xlink:href="#F" x="30" y="-8"/></g><g class="C"><use xlink:href="#G"/><use xlink:href="#G" x="-1" y="-3"/><use xlink:href="#G" y="-6"/></g><path d="M10 27h2c0 1.6-.6 3.1-1.8 4.2C9.1 32.4 7.6 33 6 33s-3.1-.6-4.2-1.8C.6 30.1 0 28.6 0 27h2c0 1.1.4 2.1 1.2 2.8.7.8 1.7 1.2 2.8 1.2s2.1-.4 2.8-1.2c.8-.7 1.2-1.7 1.2-2.8zm52 50h-2c0-1.6.6-3.1 1.8-4.2 1.1-1.2 2.6-1.8 4.2-1.8s3.1.6 4.2 1.8c1.2 1.1 1.8 2.6 1.8 4.2h-2c0-1.1-.4-2.1-1.2-2.8-.7-.8-1.7-1.2-2.8-1.2s-2.1.4-2.8 1.2c-.8.7-1.2 1.7-1.2 2.8zm67-7v2c-1.6 0-3.1-.6-4.2-1.8-1.2-1.1-1.8-2.6-1.8-4.2s.6-3.1 1.8-4.2c1.1-1.2 2.6-1.8 4.2-1.8v2c-1.1 0-2.1.4-2.8 1.2-.8.7-1.2 1.7-1.2 2.8s.4 2.1 1.2 2.8c.7.8 1.7 1.2 2.8 1.2zm1-67h2c0 1.6-.6 3.1-1.8 4.2-1.1 1.2-2.6 1.8-4.2 1.8s-3.1-.6-4.2-1.8C120.6 6.1 120 4.6 120 3h2c0 1.1.4 2.1 1.2 2.8.7.8 1.7 1.2 2.8 1.2s2.1-.4 2.8-1.2c.8-.7 1.2-1.7 1.2-2.8zM9 124v2c-1.6 0-3.1-.6-4.2-1.8-1.2-1.1-1.8-2.6-1.8-4.2s.6-3.1 1.8-4.2c1.1-1.2 2.6-1.8 4.2-1.8v2c-1.1 0-2.1.4-2.8 1.2-.8.7-1.2 1.7-1.2 2.8s.4 2.1 1.2 2.8c.7.8 1.7 1.2 2.8 1.2z" class="C E"/><use xlink:href="#H" class="C"/><use xlink:href="#H" x="30" y="-52" class="C"/><use xlink:href="#H" x="120" y="38" class="C"/><path d="M36 12c-1.6 0-3.1-.6-4.2-1.8C30.6 9.1 30 7.6 30 6s.6-3.1 1.8-4.2C32.9.6 34.4 0 36 0s3.1.6 4.2 1.8C41.4 2.9 42 4.4 42 6s-.6 3.1-1.8 4.2C39.1 11.4 37.6 12 36 12zm0-2c1.1 0 2.1-.4 2.8-1.2.8-.7 1.2-1.7 1.2-2.8s-.4-2.1-1.2-2.8C38.1 2.4 37.1 2 36 2s-2.1.4-2.8 1.2C32.4 3.9 32 4.9 32 6s.4 2.1 1.2 2.8c.7.8 1.7 1.2 2.8 1.2z" class="C E"/></g><defs ><path id="B" d="m5-5c0-0.6 0.4-1 1-1 0.6 0 1 0.4 1 1v10c0 0.6-0.4 1-1 1-0.6 0-1-0.4-1-1z"/><path id="C" d="m11-1c0.6 0 1 0.4 1 1 0 0.6-0.4 1-1 1h-10c-0.6 0-1-0.4-1-1 0-0.6 0.4-1 1-1z"/><path id="D" d="M151 68h4q.4 0 .7.3.3.3.3.7 0 .4-.3.7-.3.3-.7.3h-3v3q0 .4-.3.7-.3.3-.7.3-.4 0-.7-.3-.3-.3-.3-.7v-4q0-.2.1-.4.1-.2.2-.3.1-.1.3-.2.2-.1.4-.1z"/><path id="E" d="M98 123h-4q-.4 0-.7-.3-.3-.3-.3-.7 0-.4.3-.7.3-.3.7-.3h3v-3q0-.4.3-.7.3-.3.7-.3.4 0 .7.3.3.3.3.7v4q0 .2-.1.4-.1.2-.2.3-.1.1-.3.2-.2.1-.4.1z"/><path id="F" d="m63 41c0-0.6 0.4-1 1-1h3c0.6 0 1 0.4 1 1 0 0.6-0.4 1-1 1h-3c-0.6 0-1-0.4-1-1z"/><path id="G" d="m129 99c0 0.6-0.4 1-1 1h-3c-0.6 0-1-0.4-1-1 0-0.6 0.4-1 1-1h3c0.6 0 1 0.4 1 1z"/><path id="H" d="m33 64c0-0.6 0.4-1 1-1h4c0.6 0 1 0.4 1 1v4c0 0.6-0.4 1-1 1h-4c-0.6 0-1-0.4-1-1z"/></defs></svg>