<svg xmlns="http://www.w3.org/2000/svg" width="180" height="120">
  <defs>
    <style>
        .cls-1, .cls-5, .cls-2 {
            fill: #757575;
            opacity: 0.2;
        }
    </style>
  </defs>
  <g class="cls-1">
    <path class="cls-2" d="M66,110a6.15,6.15,0,1,1,4.2-1.8A5.62,5.62,0,0,1,66,110Zm0-2a4.1,4.1,0,1,0-2.8-1.2A3.64,3.64,0,0,0,66,108ZM6,64a3.64,3.64,0,0,1-2.8-1.2,3.87,3.87,0,0,1-.13-5.47l.13-.13A3.64,3.64,0,0,1,6,56a3.64,3.64,0,0,1,2.8,1.2,3.87,3.87,0,0,1,.13,5.47l-.13.13A3.64,3.64,0,0,1,6,64Zm0-2a2.05,2.05,0,1,0-1.4-.6A2,2,0,0,0,6,62ZM96,94a4.1,4.1,0,1,1,2.8-1.2A3.64,3.64,0,0,1,96,94Zm0-2a2.05,2.05,0,1,0-1.4-.6A2,2,0,0,0,96,92Zm30-52a4.09,4.09,0,0,1-4-4,4,4,0,1,1,6.8,2.8A3.64,3.64,0,0,1,126,40Zm0-2a2.05,2.05,0,1,0-1.4-.6A2,2,0,0,0,126,38Z" />
    <g class="cls-1">
      <path id="B" class="cls-3" d="M5-5a.94.94,0,0,1,.88-1H6a.94.94,0,0,1,1,.88V5a.94.94,0,0,1-.88,1H6a.94.94,0,0,1-1-.88V-5Z" />
      <path id="C" class="cls-3" d="M11-1a.94.94,0,0,1,1,.88V0a.94.94,0,0,1-.88,1H1A.94.94,0,0,1,0,.12V0A.94.94,0,0,1,.88-1H11Z" />
    </g>
    <g class="cls-1">
      <path id="B-2" class="cls-3" d="M35,91a1,1,0,0,1,2,0v10a1,1,0,0,1-2,0Z" />
      <path id="C-2" class="cls-3" d="M41,95a1,1,0,0,1,0,2H31a1,1,0,0,1,0-2Z" />
    </g>
    <g class="cls-1">
      <path id="B-3" class="cls-3" d="M95,55a1,1,0,0,1,2,0V65a1,1,0,0,1-2,0Z" />
      <path id="C-3" class="cls-3" d="M101,59a1,1,0,0,1,0,2H91a1,1,0,0,1,0-2Z" />
    </g>
    <g class="cls-1">
      <path class="cls-3" d="M155,39a1,1,0,0,1,2,0V49a1,1,0,0,1-2,0Z" />
      <path id="C-4" class="cls-3" d="M161,43a1,1,0,0,1,0,2H151a1,1,0,0,1,0-2Z" />
    </g>
    <g class="cls-1">
      <path class="cls-3" d="M157.4,11.2a1,1,0,1,1,1.6,1.2,1,1,0,0,1-.2.2l-4.2,4.2a1,1,0,0,1-1.6-1.2,1,1,0,0,1,.2-.2Z" />
      <path class="cls-3" d="M158.8,15.4a1,1,0,1,1-1.2,1.6,1,1,0,0,1-.2-.2l-4.2-4.2a1,1,0,0,1,1.2-1.6,1,1,0,0,1,.2.2Z" />
    </g>
    <g class="cls-1">
      <path class="cls-3" d="M37.4,33.2a1,1,0,0,1,1.4.2,1,1,0,0,1,0,1.2l-4.2,4.2a1,1,0,0,1-1.4-.2,1,1,0,0,1,0-1.2Z" />
      <path class="cls-3" d="M38.8,37.4a1,1,0,0,1-.2,1.4,1,1,0,0,1-1.2,0l-4.2-4.2a1,1,0,0,1,.2-1.4,1,1,0,0,1,1.2,0Z" />
    </g>
    <g class="cls-1">
      <path class="cls-4" d="M12,85v4a1,1,0,0,1-2,0V86H7a1,1,0,0,1,0-2h4a.79.79,0,0,1,.4.1.88.88,0,0,1,.5.5A.79.79,0,0,1,12,85ZM9,88v4a1,1,0,0,1-1,1,1,1,0,0,1-.69-.29A1,1,0,0,1,7,92V89H4a1,1,0,0,1-.7-.3,1,1,0,0,1,0-1.4A1,1,0,0,1,4,87H8a.79.79,0,0,1,.4.1,1.21,1.21,0,0,1,.3.2,1.21,1.21,0,0,1,.2.3A.79.79,0,0,1,9,88ZM6,91v4a1,1,0,0,1-2,0V92H1a1,1,0,0,1-.7-.3,1,1,0,0,1,0-1.4A1,1,0,0,1,1,90H5a.79.79,0,0,1,.4.1,1.21,1.21,0,0,1,.3.2,1.21,1.21,0,0,1,.2.3A.79.79,0,0,1,6,91Z" />
    </g>
    <g class="cls-1">
      <path id="D" class="cls-4" d="M151,68h4a1,1,0,0,1,0,2h-3v3a1,1,0,0,1-2,0V69a.79.79,0,0,1,.1-.4.88.88,0,0,1,.5-.5A.79.79,0,0,1,151,68Z" />
      <path id="D-2" class="cls-4" d="M154,71h4a1,1,0,0,1,0,2h-3v3a1,1,0,0,1-2,0V72a.79.79,0,0,1,.1-.4.88.88,0,0,1,.5-.5A.79.79,0,0,1,154,71Z" />
      <path id="D-3" class="cls-4" d="M157,74h4a1,1,0,0,1,0,2h-3v3a1,1,0,0,1-2,0V75a.79.79,0,0,1,.1-.4.88.88,0,0,1,.5-.5A.79.79,0,0,1,157,74Z" />
    </g>
    <g class="cls-1">
      <path id="E" class="cls-4" d="M98,123H94a1,1,0,0,1,0-2h3v-3a1,1,0,0,1,2,0v4a.79.79,0,0,1-.1.4.88.88,0,0,1-.5.5A.79.79,0,0,1,98,123Z" />
      <path id="E-2" class="cls-4" d="M95,120H91a1,1,0,0,1,0-2h3v-3a1,1,0,0,1,2,0v4a.79.79,0,0,1-.1.4.88.88,0,0,1-.5.5A.79.79,0,0,1,95,120Z" />
    </g>
    <g class="cls-1">
      <path class="cls-4" d="M101,6H97a1,1,0,0,1,0-2h3V1a1,1,0,0,1,.3-.7,1,1,0,0,1,1.4,0,1,1,0,0,1,.3.7V5a.79.79,0,0,1-.1.4,1.21,1.21,0,0,1-.2.3,1.21,1.21,0,0,1-.3.2A.79.79,0,0,1,101,6Z" />
      <path id="E-3" class="cls-4" d="M98,3H94a1,1,0,0,1-.7-.3,1,1,0,0,1,0-1.4A1,1,0,0,1,94,1h3V-2a1,1,0,0,1,.3-.7A1,1,0,0,1,98-3a1,1,0,0,1,.7.3A1,1,0,0,1,99-2V2a.79.79,0,0,1-.1.4,1.21,1.21,0,0,1-.2.3,1.21,1.21,0,0,1-.3.2A.79.79,0,0,1,98,3Z" />
    </g>
    <g class="cls-1">
      <path id="F" class="cls-3" d="M63,41a.94.94,0,0,1,.88-1H67a1,1,0,0,1,0,2H64a.94.94,0,0,1-1-.88Z" />
      <path id="F-2" class="cls-3" d="M64,44a.94.94,0,0,1,.88-1H68a1,1,0,0,1,0,2H65a.94.94,0,0,1-1-.88Z" />
      <path id="F-3" class="cls-3" d="M63,47a.94.94,0,0,1,.88-1H67a1,1,0,0,1,0,2H64a.94.94,0,0,1-1-.88Z" />
    </g>
    <g class="cls-1">
      <path id="F-4" class="cls-3" d="M93,27a.94.94,0,0,1,.88-1H97a1,1,0,0,1,0,2H94a.94.94,0,0,1-1-.88Z" />
      <path id="F-5" class="cls-3" d="M94,30a.94.94,0,0,1,.88-1H98a1,1,0,0,1,0,2H95a.94.94,0,0,1-1-.88Z" />
      <path id="F-6" class="cls-3" d="M93,33a.94.94,0,0,1,.88-1H97a1,1,0,0,1,0,2H94a.94.94,0,0,1-1-.88Z" />
    </g>
    <g class="cls-1">
      <path id="G" class="cls-3" d="M129,99a.94.94,0,0,1-.88,1H125a1,1,0,0,1,0-2h3a.94.94,0,0,1,1,.88Z" />
      <path id="G-2" class="cls-3" d="M128,96a.94.94,0,0,1-.88,1H124a1,1,0,0,1,0-2h3a.94.94,0,0,1,1,.88Z" />
      <path id="G-3" class="cls-3" d="M129,93a.94.94,0,0,1-.88,1H125a1,1,0,0,1,0-2h3a.94.94,0,0,1,1,.88Z" />
    </g>
    <path class="cls-2" d="M10,27h2a5.62,5.62,0,0,1-1.8,4.2A5.62,5.62,0,0,1,6,33a5.62,5.62,0,0,1-4.2-1.8A5.62,5.62,0,0,1,0,27H2a3.64,3.64,0,0,0,1.2,2.8A3.64,3.64,0,0,0,6,31a3.64,3.64,0,0,0,2.8-1.2A3.64,3.64,0,0,0,10,27ZM62,77H60a5.94,5.94,0,0,1,10.2-4.2A5.62,5.62,0,0,1,72,77H70a4,4,0,0,0-6.8-2.8A3.64,3.64,0,0,0,62,77Zm67-7v2a5.94,5.94,0,0,1-4.2-10.2A5.62,5.62,0,0,1,129,60v2a4,4,0,0,0-2.8,6.8A3.64,3.64,0,0,0,129,70Zm1-67h2a5.62,5.62,0,0,1-1.8,4.2,5.8,5.8,0,0,1-8.2.2l-.2-.2A5.62,5.62,0,0,1,120,3h2a3.64,3.64,0,0,0,1.2,2.8,3.87,3.87,0,0,0,5.47.13,1.59,1.59,0,0,0,.13-.13A3.64,3.64,0,0,0,130,3Z" />
    <path id="H" class="cls-5" d="M33,64a.94.94,0,0,1,.88-1H38a.94.94,0,0,1,1,.88V68a.94.94,0,0,1-.88,1H34a.94.94,0,0,1-1-.88V64Z" />
    <path id="H-2" class="cls-5" d="M63,12a.94.94,0,0,1,.88-1H68a.94.94,0,0,1,1,.88V16a.94.94,0,0,1-.88,1H64a.94.94,0,0,1-1-.88V12Z" />
    <path id="H-3" class="cls-5" d="M153,102a.94.94,0,0,1,.88-1H158a.94.94,0,0,1,1,.88V106a.94.94,0,0,1-.88,1H154a.94.94,0,0,1-1-.88V102Z" />
    <path class="cls-2" d="M36,12a5.62,5.62,0,0,1-4.2-1.8A5.62,5.62,0,0,1,30,6a5.62,5.62,0,0,1,1.8-4.2A5.8,5.8,0,0,1,40,1.6l.2.2A5.62,5.62,0,0,1,42,6a5.62,5.62,0,0,1-1.8,4.2A5.62,5.62,0,0,1,36,12Zm0-2a3.64,3.64,0,0,0,2.8-1.2A3.64,3.64,0,0,0,40,6a3.64,3.64,0,0,0-1.2-2.8,3.87,3.87,0,0,0-5.47-.13l-.13.13A3.64,3.64,0,0,0,32,6a3.64,3.64,0,0,0,1.2,2.8A3.64,3.64,0,0,0,36,10Z" />
    <g class="cls-1">
      <path id="B-4" class="cls-3" d="M5,115a.94.94,0,0,1,.88-1H6a.94.94,0,0,1,1,.88V125a.94.94,0,0,1-.88,1H6a.94.94,0,0,1-1-.88V115Z" />
      <path id="C-5" class="cls-3" d="M11,119a1,1,0,0,1,0,2H1a1,1,0,0,1,0-2Z" />
    </g>
  </g>
</svg>